<svg xmlns="http://www.w3.org/2000/svg" viewBox="0 0 100 100">
  <polygon fill="#492E87" points="85,70 85,30 49,9.008 15,30 15,70 49,90.992"/>
  <polygon fill="#492E87" points="85,70.617 85,29.351 48.989,50"/>
  <polygon fill="#0A1D56" points="14.521,69.66 50,49.424 85.181,69.468 49,90.992"/>
  <path fill="#37B5B6" d="M79,50h-2.58l0.25-3H79c0.552,0,1-0.447,1-1s-0.448-1-1-1h-2.163l0.16-1.917 c0.046-0.551-0.363-1.033-0.914-1.079c-0.547-0.054-1.034,0.362-1.08,0.913L74.83,45h-2.993l0.16-1.917 c0.046-0.551-0.363-1.033-0.914-1.079c-0.549-0.054-1.034,0.362-1.08,0.913L69.83,45H68c-0.552,0-1,0.447-1,1s0.448,1,1,1h1.663 l-0.25,3H68c-0.552,0-1,0.447-1,1s0.448,1,1,1h1.247l-0.243,2.917c-0.046,0.551,0.363,1.033,0.914,1.079 C69.945,55.999,69.973,56,70.001,56c0.515,0,0.952-0.395,0.996-0.917L71.253,52h2.993l-0.243,2.917 c-0.046,0.551,0.363,1.033,0.914,1.079C74.945,55.999,74.973,56,75.001,56c0.515,0,0.952-0.395,0.996-0.917L76.253,52H79 c0.552,0,1-0.447,1-1S79.552,50,79,50z M71.42,50l0.25-3h2.993l-0.25,3H71.42z"/>
  <path fill="#37B5B6" d="M50,73c-6.144,0-11.919-2.393-16.264-6.737C29.393,61.919,27,56.144,27,50 s2.393-11.919,6.737-16.264C38.081,29.393,43.856,27,50,27s11.919,2.393,16.264,6.737c1.359,1.358,2.543,2.881,3.52,4.522 l-10.315,6.133c-0.467-0.786-1.036-1.516-1.69-2.171C55.7,40.145,52.938,39,50,39s-5.7,1.145-7.778,3.222 C40.144,44.3,39,47.062,39,50s1.144,5.7,3.222,7.777C44.3,59.855,47.062,61,50,61s5.7-1.145,7.778-3.222 c0.655-0.655,1.224-1.385,1.69-2.171l10.315,6.133c-0.976,1.642-2.161,3.164-3.52,4.522C61.919,70.607,56.144,73,50,73z"/>
  <path fill="#37B5B6" d="M48.985,7.842L14,29.442v41.115l34.985,21.601L86,70.574V29.426L48.985,7.842z M16.473,69.735 l4.473-2.556c0.24-0.138,0.323-0.442,0.187-0.683c-0.137-0.239-0.442-0.321-0.683-0.187L16,68.852V30.558l33.015-20.384 l34.484,20.108L78.391,33.2c-0.24,0.138-0.323,0.443-0.186,0.683c0.092,0.161,0.261,0.252,0.435,0.252 c0.084,0,0.169-0.021,0.248-0.065L84,31.148v37.705l-5.549-3.171c-0.24-0.134-0.545-0.052-0.683,0.187 c-0.137,0.24-0.054,0.545,0.187,0.683l5.543,3.167L49.015,89.826L16.473,69.735z"/>
  <path fill="#37B5B6" d="M70.039,61.311l-10.315-6.133c-0.114-0.069-0.251-0.089-0.379-0.055 c-0.128,0.032-0.239,0.115-0.307,0.229c-0.444,0.747-0.987,1.445-1.614,2.072C55.44,59.408,52.804,60.5,50,60.5 c-2.804,0-5.441-1.093-7.425-3.076C40.592,55.441,39.5,52.805,39.5,50s1.092-5.441,3.076-7.425C44.56,40.592,47.196,39.5,50,39.5 s5.44,1.092,7.424,3.075c0.627,0.628,1.17,1.325,1.614,2.072c0.068,0.114,0.178,0.197,0.307,0.229 c0.128,0.033,0.265,0.014,0.379-0.055l10.315-6.133c0.114-0.067,0.196-0.178,0.229-0.307c0.033-0.128,0.013-0.265-0.055-0.379 c-0.999-1.679-2.208-3.233-3.596-4.62C62.179,28.944,56.277,26.5,50,26.5c-6.277,0-12.178,2.444-16.617,6.883 C28.944,37.822,26.5,43.724,26.5,50s2.444,12.178,6.883,16.616C37.821,71.056,43.723,73.5,50,73.5s12.179-2.444,16.617-6.884 c1.387-1.387,2.597-2.941,3.596-4.62c0.068-0.114,0.088-0.251,0.055-0.379C70.235,61.488,70.153,61.378,70.039,61.311z M65.91,65.909C61.66,70.159,56.01,72.5,50,72.5c-6.01,0-11.66-2.341-15.91-6.591C29.84,61.659,27.5,56.01,27.5,50 s2.34-11.66,6.59-15.91c4.25-4.249,9.9-6.59,15.91-6.59s11.66,2.341,15.91,6.591c1.21,1.21,2.279,2.553,3.183,3.998l-9.459,5.624 c-0.432-0.659-0.936-1.278-1.501-1.845C55.959,39.696,53.071,38.5,50,38.5s-5.959,1.196-8.131,3.368 C39.696,44.041,38.5,46.929,38.5,50s1.196,5.959,3.368,8.131C44.041,60.304,46.929,61.5,50,61.5s5.959-1.196,8.132-3.368 c0.565-0.566,1.069-1.186,1.501-1.845l9.459,5.624C68.189,63.356,67.12,64.699,65.91,65.909z"/>
  <path fill="#1f212b" d="M80.5,51c0-0.827-0.673-1.5-1.5-1.5h-2.037l0.167-2H79c0.827,0,1.5-0.673,1.5-1.5 s-0.673-1.5-1.5-1.5h-1.62l0.115-1.375c0.068-0.824-0.546-1.551-1.363-1.619c-0.395-0.035-0.782,0.082-1.09,0.338 c-0.312,0.261-0.503,0.627-0.537,1.032L74.37,44.5h-1.99l0.115-1.375c0.068-0.824-0.546-1.551-1.363-1.619 c-0.396-0.028-0.784,0.082-1.091,0.339c-0.312,0.26-0.502,0.626-0.536,1.031L69.37,44.5H68c-0.827,0-1.5,0.673-1.5,1.5 s0.673,1.5,1.5,1.5h1.12l-0.167,2H68c-0.827,0-1.5,0.673-1.5,1.5s0.673,1.5,1.5,1.5h0.703l-0.198,2.375 c-0.068,0.824,0.546,1.551,1.36,1.618c0.018,0.002,0.119,0.007,0.136,0.007c0.773,0,1.43-0.604,1.494-1.375l0.218-2.625h1.99 l-0.198,2.375c-0.068,0.824,0.546,1.551,1.36,1.618c0.018,0.002,0.119,0.007,0.136,0.007c0.773,0,1.43-0.604,1.494-1.375 l0.218-2.625H79C79.827,52.5,80.5,51.827,80.5,51z M76.253,51.5c-0.26,0-0.477,0.199-0.499,0.458l-0.257,3.084 c-0.021,0.255-0.237,0.456-0.535,0.456c-0.001,0-0.003,0-0.005,0c-0.275-0.023-0.48-0.265-0.457-0.539l0.243-2.917 c0.012-0.14-0.036-0.277-0.131-0.381c-0.095-0.103-0.228-0.161-0.368-0.161h-2.993c-0.26,0-0.477,0.199-0.499,0.458l-0.257,3.084 c-0.021,0.255-0.237,0.456-0.535,0.456c-0.001,0-0.003,0-0.005,0c-0.275-0.023-0.48-0.265-0.457-0.539l0.243-2.917 c0.012-0.14-0.036-0.277-0.131-0.381c-0.095-0.103-0.228-0.161-0.368-0.161H68c-0.275,0-0.5-0.225-0.5-0.5s0.225-0.5,0.5-0.5h1.413 c0.26,0,0.477-0.199,0.498-0.458l0.25-3c0.012-0.14-0.035-0.277-0.13-0.381c-0.095-0.103-0.229-0.161-0.368-0.161H68 c-0.275,0-0.5-0.225-0.5-0.5s0.225-0.5,0.5-0.5h1.83c0.26,0,0.477-0.199,0.498-0.459l0.174-2.083 c0.011-0.136,0.075-0.259,0.18-0.346c0.1-0.084,0.224-0.119,0.36-0.11c0.275,0.023,0.48,0.265,0.457,0.54l-0.159,1.917 c-0.012,0.139,0.035,0.276,0.13,0.38c0.095,0.103,0.229,0.161,0.368,0.161h2.993c0.26,0,0.477-0.199,0.498-0.459l0.174-2.082 c0.011-0.136,0.075-0.259,0.18-0.347c0.101-0.084,0.226-0.122,0.359-0.11c0.275,0.023,0.48,0.265,0.457,0.54l-0.159,1.917 c-0.012,0.139,0.035,0.276,0.13,0.38c0.095,0.103,0.229,0.161,0.368,0.161H79c0.275,0,0.5,0.225,0.5,0.5s-0.225,0.5-0.5,0.5h-2.33 c-0.26,0-0.477,0.199-0.498,0.458l-0.25,3c-0.012,0.14,0.035,0.277,0.13,0.381c0.095,0.103,0.229,0.161,0.368,0.161H79 c0.275,0,0.5,0.225,0.5,0.5s-0.225,0.5-0.5,0.5H76.253z"/>
  <path fill="#1f212b" d="M74.663,46.5H71.67c-0.26,0-0.477,0.199-0.498,0.458l-0.25,3c-0.012,0.14,0.035,0.277,0.13,0.381 c0.095,0.103,0.229,0.161,0.368,0.161h2.993c0.26,0,0.477-0.199,0.498-0.458l0.25-3c0.012-0.14-0.035-0.277-0.13-0.381 C74.937,46.559,74.803,46.5,74.663,46.5z M73.953,49.5h-1.99l0.167-2h1.99L73.953,49.5z"/>
  <path fill="#37B5B6" d="M73.042,37.333c0.084,0,0.169-0.021,0.248-0.065l3.252-1.857c0.24-0.138,0.323-0.442,0.186-0.683 c-0.137-0.238-0.441-0.32-0.682-0.187l-3.252,1.857c-0.24,0.138-0.323,0.442-0.186,0.683C72.7,37.242,72.868,37.333,73.042,37.333z"/>
  <path fill="#37B5B6" d="M57.049,45.972c-0.137-0.239-0.441-0.319-0.682-0.187l-13.7,7.829 c-0.239,0.138-0.323,0.443-0.186,0.683c0.092,0.161,0.261,0.252,0.435,0.252c0.084,0,0.169-0.021,0.247-0.065L50,50.576 l6.837,3.907c0.078,0.044,0.163,0.065,0.247,0.065c0.174,0,0.343-0.091,0.435-0.252c0.137-0.239,0.054-0.545-0.186-0.683L51.009,50 l5.854-3.346C57.103,46.517,57.186,46.211,57.049,45.972z"/>
  <path fill="#37B5B6" d="M27.104,62.507l-4.2,2.4c-0.239,0.138-0.323,0.443-0.186,0.683c0.092,0.161,0.261,0.252,0.435,0.252 c0.084,0,0.169-0.021,0.247-0.065l4.2-2.4c0.24-0.138,0.323-0.443,0.186-0.683C27.65,62.455,27.345,62.373,27.104,62.507z"/>
  <path fill="#37B5B6" d="M76.146,64.364l-2.857-1.632c-0.24-0.134-0.545-0.052-0.682,0.187 c-0.137,0.24-0.054,0.545,0.186,0.683l2.857,1.632c0.078,0.044,0.163,0.065,0.247,0.065c0.174,0,0.343-0.091,0.435-0.252 C76.469,64.807,76.386,64.502,76.146,64.364z"/></svg>